<svg id="cyberdoveslogo" xmlns="http://www.w3.org/2000/svg" viewBox="0 0 544.21 64.26"><title>cyberdoveslogosvg</title><g id="group"><path id="b-letter" d="M115.5,9h39.14v7.7h7.89V32.34h-7.69c-.17,5.66,0,11.14-.1,16.8h7.67V65h-7.6v7.87H115.5Zm31.28,15.84H131.08c.1,2.7-.13,5.23.13,7.55h15.57Zm0,24.63H131.35V57h15.43Z" transform="translate(-4.75 -8.84)"/><path id="r-letter" d="M225.9,9H265v7.68h7.9V41.32h-7.64V49.1h7a4.9,4.9,0,0,1,.56.51A.78.78,0,0,1,273,50c0,7.53,0,15.06,0,22.75H257.41V57.28h-7.94V49.4h-7.93V72.85H225.9Zm15.77,15.77v7.81c2.76,0,5.36,0,8,0a69.78,69.78,0,0,0,7.48-.11V24.72Z" transform="translate(-4.75 -8.84)"/><path id="etwo-letter" d="M217.75,32.36V49.15H186.53v7.93h31.11V72.83h-39V65.24h-7.91V16.89h7.61V9.09h39.42V24.59H186.4v7.76Z" transform="translate(-4.75 -8.84)"/><path id="eone-letter" d="M462.47,57.19h31.22V72.72H454.5v-7.6h-7.87V16.94h7.61V9h39.37v15.5H462.52v7.93h31.13v16.8H462.47Z" transform="translate(-4.75 -8.84)"/><path id="d-letter" d="M281.09,9h39.09v7.61h7.91v48.3h-7.57V72.7H281.09ZM312.3,57.08V24.64c-2.77,0-5.38,0-8,0s-5.11-.1-7.45.06V57.08Z" transform="translate(-4.75 -8.84)"/><path id="y-letter" d="M68,49.46V41.52H60.35V9h15.5V32.43H91.49V9a63.91,63.91,0,0,1,7.83-.16c2.6,0,5.21,0,8.12,0V64.93H99.66v7.8H60.25V57.21H91.57V49.46Z" transform="translate(-4.75 -8.84)"/><path id="s-letter" d="M549,9V24.5H517.74v7.92h23.32v8.91h7.78V65h-7.51V72.4c-4.2.74-26.29.94-39.44.37V57.32h31.23V49.4H509.71V41.47h-7.87V16.95h7.59V9Z" transform="translate(-4.75 -8.84)"/><path id="o-letter" d="M344.16,8.87h31.25v7.77h7.81V65h-7.48v7.2a4.93,4.93,0,0,1-.51.57.78.78,0,0,1-.42.17H344.16V65.17h-7.9V16.82h7.9Zm7.91,15.86V57.17c2.77,0,5.38,0,8,0s5.11.1,7.45-.06V24.73Z" transform="translate(-4.75 -8.84)"/><path id="v-letter" d="M407.12,9V49.13h15.63V9h15.68v48.1H430.8V65H423V72.7H407.21V65.14h-7.94V57.36H391.9c-.81-4.21-1-32.57-.42-48.32Z" transform="translate(-4.75 -8.84)"/><path id="c-letter" d="M20.87,57.2H52.1V72.73H12.87V65.25H5.5c-.79-4.15-1-34.53-.39-48.34H12.7V9.23a6,6,0,0,1,1.23-.35H52V24.61H20.87Z" transform="translate(-4.75 -8.84)"/></g></svg>