<svg id="Слой_1" data-name="Слой 1" xmlns="http://www.w3.org/2000/svg" viewBox="0 0 1440.25 618.25"><defs><style>.cls-1{fill:#fe5972;}.cls-2{fill:#fe5f6d;}.cls-3{fill:#fe5e6e;}.cls-4{fill:#fe5d6f;}.cls-5{fill:#fe5c70;}.cls-6{fill:#fe5a71;}.cls-7{fill:#fb5975;}.cls-8{fill:#f75a78;}.cls-9{fill:#f45a7b;}.cls-10{fill:#f15b7e;}.cls-11{fill:#ed5b7f;}.cls-12{fill:#ea5c82;}.cls-13{fill:#fe616c;}.cls-14{fill:#67b5b5;}.cls-15{fill:#3a6666;}.cls-16{fill:#274444;}.cls-17{fill:#e75c85;}.cls-18{fill:#e05d8b;}.cls-19{fill:#e35d88;}.cls-20{fill:#dd5d8e;}.cls-21{fill:#d95e91;}.cls-22{fill:#b862ad;}.cls-23{fill:#d35f96;}.cls-24{fill:#b563b0;}.cls-25{fill:#cf5f99;}.cls-26{fill:#d65e94;}.cls-27{fill:#cc609c;}.cls-28{fill:#c9609f;}.cls-29{fill:#c561a2;}.cls-30{fill:#c261a5;}.cls-31{fill:#bf62a8;}.cls-32{fill:#bb62ab;}.cls-33{fill:#4f8a8a;}.cls-34{fill:#b163b3;}.cls-35{fill:#ae64b6;}.cls-36{fill:#ab64b9;}.cls-37{fill:#a670c1;}.cls-38{fill:#a17bc8;}.cls-39{fill:#7fcdcd;}.cls-40{fill:#545454;}.cls-41{fill:#fb547e;}.cls-42{fill:#fbfbd1;}.cls-43{fill:#5b9696;}.cls-44{fill:#4a7676;}.cls-45{fill:#82dd81;}.cls-46{fill:#142424;}.cls-47{fill:#648181;}.cls-48{fill:#6c9797;}.cls-49{fill:#1a1a1a;}.cls-50{fill:#00a7d1;}.cls-51{fill:#0b1313;}.cls-52{fill:#75b0b0;}.cls-53{fill:#3acae3;}.cls-54{fill:#3a5757;}.cls-55{fill:#80d76c;}.cls-56{fill:#5d6c6c;}.cls-57{fill:#7ed154;}.cls-58{fill:#232b2b;}.cls-59{fill:#596161;}.cls-60{fill:#7fd461;}.cls-61{fill:#0badd4;}.cls-62{fill:#27bedd;}.cls-63{fill:#2b3a3a;}.cls-64{fill:#14b3d7;}</style></defs><title>cybercitylogosvg</title><path class="cls-1" d="M-707-174v-32c1.34-1.76,3.25-2.17,5.31-2.27,3-.15,6-.12,9-.12H718.69c3,0,6,0,9,.12,2.06.1,4,.51,5.31,2.27v32c-1.34,1.76-3.25,2.17-5.31,2.27-3,.15-6,.12-9,.12H-692.68c-3,0-6,0-9-.12C-703.74-171.83-705.65-172.24-707-174Z" transform="translate(707.03 296.22)"/><path class="cls-2" d="M-707-270v-16c1.34-1.76,3.25-2.17,5.31-2.27,3-.15,6-.12,9-.12H718.69c3,0,6,0,9,.12,2.06.1,4,.51,5.31,2.27v16c-1.34,1.76-3.25,2.17-5.31,2.27-3,.15-6,.12-9,.12H-692.68c-3,0-6,0-9-.12C-703.74-267.83-705.65-268.24-707-270Z" transform="translate(707.03 296.22)"/><path class="cls-3" d="M-707-270H733v16c-1.34,1.76-3.25,2.17-5.31,2.27-3,.15-6,.12-9,.12H-692.68c-3,0-6,0-9-.12-2.06-.1-4-.51-5.32-2.27Z" transform="translate(707.03 296.22)"/><path class="cls-4" d="M-707-254H733v16c-1.34,1.76-3.25,2.17-5.31,2.27-3,.15-6,.12-9,.12H-692.68c-3,0-6,0-9-.12-2.06-.1-4-.51-5.32-2.27Z" transform="translate(707.03 296.22)"/><path class="cls-5" d="M-707-238H733v16c-1.34,1.76-3.25,2.17-5.31,2.27-3,.15-6,.12-9,.12H-692.68c-3,0-6,0-9-.12-2.06-.1-4-.51-5.32-2.27Z" transform="translate(707.03 296.22)"/><path class="cls-6" d="M-707-222H733v16H-707Z" transform="translate(707.03 296.22)"/><path class="cls-7" d="M-707-174H733v16c-1.34,1.76-3.25,2.17-5.31,2.27-3,.15-6,.12-9,.12H-692.68c-3,0-6,0-9-.12-2.06-.1-4-.51-5.32-2.27Z" transform="translate(707.03 296.22)"/><path class="cls-8" d="M-707-158H733v16c-1.34,1.76-3.25,2.17-5.31,2.27-3,.15-6,.12-9,.12H-692.68c-3,0-6,0-9-.12-2.06-.1-4-.51-5.32-2.27Z" transform="translate(707.03 296.22)"/><path class="cls-9" d="M-707-142H733v16c-1.34,1.76-3.25,2.17-5.31,2.27-3,.15-6,.12-9,.12H-692.68c-3,0-6,0-9-.12-2.06-.1-4-.51-5.32-2.27Z" transform="translate(707.03 296.22)"/><path class="cls-10" d="M-707-126H733v16c-1.34,1.76-3.25,2.17-5.31,2.27-3,.15-6,.12-9,.12H-692.68c-3,0-6,0-9-.12-2.06-.1-4-.51-5.32-2.27Z" transform="translate(707.03 296.22)"/><path class="cls-11" d="M-707-110H733v16c-1.34,1.76-3.25,2.17-5.31,2.27-3,.15-6,.12-9,.12H-692.68c-3,0-6,0-9-.12-2.06-.1-4-.51-5.32-2.27Z" transform="translate(707.03 296.22)"/><path class="cls-12" d="M-707-94H733v16c-1.34,1.75-3.24,2.17-5.3,2.27-2.33.11-4.66.12-7,.12H551.07c-3.33,0-6.65-.07-10-.29q-40.07.69-80.14,0c-3.83.27-7.66.28-11.49.28H-135.35c-3.83,0-7.66,0-11.49-.3q-24.12.69-48.25,0c-3.82.28-7.65.29-11.48.29H-535.19c-3.83,0-7.66,0-11.48-.3a124,124,0,0,1-16.59,0c-9.49.59-19,.28-28.48.29q-52.73.05-105.46,0c-3.38,0-7.12.84-9.81-2.34Z" transform="translate(707.03 296.22)"/><path class="cls-13" d="M733-286H-707c0-3,0-6,0-9,0-.86.16-1.1,1-1,1.16.1,2.33,0,3.5,0h1431c1.5,0,3.59-.59,4.34.16s.16,2.84.16,4.34Z" transform="translate(707.03 296.22)"/><path class="cls-14" d="M333,322H-83c-3.79-5.37-2.93-10.88-.51-16.44a8.85,8.85,0,0,1,6.07-1.85c46.08,0,92.16-.44,138.24.2q16.15-.67,32.31,0c27.11-.64,54.22-.21,81.33-.26,15.46,0,30.93-.39,46.39.26q16.14-.68,32.28,0c24.74-.59,49.48-.24,74.22-.19a9.24,9.24,0,0,1,6.1,1.75C336,311,336.77,316.58,333,322Z" transform="translate(707.03 296.22)"/><path class="cls-14" d="M733,306c0,5,0,10,0,15,0,.86-.16,1.1-1,1-1.16-.1-2.33,0-3.5,0H349c-3.8-5.32-2.76-10.87-.8-16.48,3.36-2.88,7.44-1.54,11.22-1.85a48.56,48.56,0,0,1,5.35.24,118.57,118.57,0,0,1,16.43,0q31.84-.75,63.69,0,16.11-.68,32.22,0c12.3-.6,24.61-.25,36.92-.27q47.9-.09,95.81,0c3.66,0,7.32,0,11,.3q16.15-.68,32.3,0c24.54-.6,49.07-.23,73.61-.2C729.06,303.7,731.41,303.88,733,306Z" transform="translate(707.03 296.22)"/><path class="cls-15" d="M733,274v16c-1.59,2.12-3.93,2.3-6.27,2.3-24.52,0-49,.42-73.55-.21q-16.14.67-32.29,0c-12.64.6-25.28.25-37.92.27q-47.4.09-94.81,0c-3.66,0-7.32,0-11-.3-10.73.44-21.45.47-32.18,0-19.38.59-38.76.22-58.14.21a11.79,11.79,0,0,1-5.33-1,3.93,3.93,0,0,1-1.53-1.25c-1.88-5.58-2.36-11.11.5-16.54,5.28-3.28,11.05-1.47,16.63-1.62,2.16-.1,4.32-.29,6.48-.29q160,0,320.07,0C726.93,271.66,730.48,270.95,733,274Z" transform="translate(707.03 296.22)"/><path class="cls-14" d="M-99,322H-435c-3.69-5.36-3-10.87-.53-16.43a8.82,8.82,0,0,1,6.06-1.86c30.09,0,60.18-.43,90.26.19,10.74-.44,21.48-.47,32.22,0,16-.45,31.93-.49,47.9,0q16.06-.67,32.11,0c16-.45,31.93-.49,47.89,0q16.08-.68,32.17,0c13.93-.57,27.86-.24,41.79-.21,2.34,0,4.66.21,6.58,1.8C-96,311.07-95.22,316.6-99,322Z" transform="translate(707.03 296.22)"/><path class="cls-16" d="M733,274H397c-3.78-5.37-2.93-10.89-.5-16.45,2.21-1.88,4.91-1.86,7.58-1.9,7.66-.11,15.32,0,23,0H688.37c4.16,0,8.33,0,12.48.3,8.45-.48,16.91-.3,25.37-.22,2.49,0,5,0,6.78,2.32Z" transform="translate(707.03 296.22)"/><path class="cls-14" d="M-451,322H-702.5c-1.17,0-2.34-.07-3.5,0-.87.07-1-.16-1-1,.05-5,0-10,0-15,1.72-2.28,4.25-2.3,6.72-2.31,8.39-.06,16.79-.3,25.18.22q16.06-.67,32.13,0c16-.45,31.93-.49,47.89,0q16.09-.67,32.18,0,47.9-.7,95.79,0c5.62.15,11.42-1.63,16.78,1.48C-448.29,311-447.12,316.61-451,322Z" transform="translate(707.03 296.22)"/><path class="cls-16" d="M-707,274V258c1.74-2.29,4.29-2.31,6.77-2.31,13.76,0,27.51-.36,41.27.2,1.33,0,2.66-.21,4-.22q98.64-.18,197.28,0c2.5,0,5,.08,7.12,1.78,2.87,5.62,2.73,11.26.16,16.93-2.82,2.39-6.26,2-9.54,2-25.47.07-50.95,0-76.42,0q-80.16,0-160.33-.05C-700.23,276.33-704.14,277.29-707,274Z" transform="translate(707.03 296.22)"/><path class="cls-15" d="M-707,274h256l.82.55a18.8,18.8,0,0,1-.27,16.21c-5.34,2.92-11.06,1.19-16.63,1.34q-47.88.7-95.76,0-16.09.67-32.18,0c-16,.45-31.93.49-47.89,0q-16.07.67-32.14,0c-8.4.49-16.81.28-25.22.21-2.47,0-5,0-6.73-2.31Z" transform="translate(707.03 296.22)"/><path class="cls-17" d="M541-78H733v16a6.15,6.15,0,0,1-4.8,2.23c-2.16.12-4.32.16-6.48.16q-85.05,0-170.1,0c-3.78,0-7.69.51-11.19-1.65C537.94-67,537.28-72.55,541-78Z" transform="translate(707.03 296.22)"/><path class="cls-18" d="M733-46v16c-1.6,2.13-3.95,2.3-6.29,2.3-29.89,0-59.79.4-89.68-.19-30.19.57-60.38.23-90.57.17-2.12,0-4.37.11-6.08-1.63a21.21,21.21,0,0,1-.16-17.16c2.42-1.84,5.29-1.85,8.11-1.85q88.43-.11,176.86,0C728-48.33,731-48.63,733-46Z" transform="translate(707.03 296.22)"/><path class="cls-19" d="M733-46H541c-3.28-4-3.28-12,0-16H733Z" transform="translate(707.03 296.22)"/><path class="cls-19" d="M-707-46V-62c2.2-2.78,5.37-2.32,8.29-2.34,17.63-.11,35.26,0,52.9,0q36.43,0,72.86,0c3.14,0,6.34-.31,9.35,1A4,4,0,0,1-562-62.07c1.8,5.65,2.52,11.27-.41,16.81-2.51,1.61-5.36,1.62-8.18,1.62q-64,.09-128.09,0C-701.64-43.67-704.81-43.23-707-46Z" transform="translate(707.03 296.22)"/><path class="cls-18" d="M-707-46h144c3.89,5.34,2.83,10.9.77,16.52-2.1,1.57-4.57,1.79-7.06,1.8-8.58.05-17.16.27-25.73-.21-35.23.58-70.46.21-105.69.19-2.34,0-4.69-.17-6.29-2.3Z" transform="translate(707.03 296.22)"/><path class="cls-17" d="M-563-62H-707V-78h144C-559.75-73.59-559.75-66.22-563-62Z" transform="translate(707.03 296.22)"/><path class="cls-20" d="M-707-30h112c3.91,5,2.52,10.44,1.08,15.85a3.65,3.65,0,0,1-1.43,1.35c-2.47,1.23-5.15,1.16-7.8,1.16q-47.54.07-95.08,0c-3.07,0-6.42.57-8.77-2.34Z" transform="translate(707.03 296.22)"/><path class="cls-21" d="M-707-14h112c2.48,3.23,3.22,12.92,1.21,15.88-1.13,1.66-2.84,2.11-4.71,2.27a84.17,84.17,0,0,1-12.34,0c-29.78.58-59.57.2-89.36.21-2.49,0-5.06,0-6.8-2.32Z" transform="translate(707.03 296.22)"/><path class="cls-22" d="M733,146v16c-1.6,2.12-3.94,2.29-6.28,2.3q-42.08.21-84.16,0a10.91,10.91,0,0,1-6.17-1.63c-2.65-5.69-2.48-11.41-.17-17.15,2.42-1.84,5.28-1.85,8.11-1.86q40.44-.11,80.88,0C728,143.68,731,143.37,733,146Z" transform="translate(707.03 296.22)"/><path class="cls-23" d="M733,18V34c-1.6,2.12-3.94,2.29-6.28,2.3q-42.08.21-84.16,0a10.91,10.91,0,0,1-6.17-1.63c-2.65-5.69-2.48-11.41-.17-17.15,2.42-1.84,5.28-1.85,8.11-1.86q40.44-.11,80.88,0C728,15.68,731,15.37,733,18Z" transform="translate(707.03 296.22)"/><path class="cls-24" d="M637,162h96v16c-1.59,2.12-3.93,2.3-6.27,2.3-19.22,0-38.44.4-57.66-.2-8.73.49-17.46.31-26.19.19-2.26,0-4.68.19-6.52-1.66C634.34,173,633,167.4,637,162Z" transform="translate(707.03 296.22)"/><path class="cls-20" d="M637-30h96v16c-1.6,2.12-3.94,2.29-6.28,2.3q-42.06.21-84.12,0a11.06,11.06,0,0,1-6.18-1.59C633.94-19,633.28-24.55,637-30Z" transform="translate(707.03 296.22)"/><path class="cls-25" d="M637,34h96V50c-1.6,2.12-3.94,2.29-6.28,2.3q-42.07.21-84.13,0a11,11,0,0,1-6.18-1.61C634,45,633.16,39.43,637,34Z" transform="translate(707.03 296.22)"/><path class="cls-21" d="M637-14h96V2c-1.6,2.12-3.94,2.29-6.28,2.3q-42.07.21-84.13,0a11,11,0,0,1-6.18-1.61C634-3,633.16-8.57,637-14Z" transform="translate(707.03 296.22)"/><path class="cls-26" d="M-707,2h96c3.75,5.38,3,11,.69,16.59-2.15,1.5-4.63,1.73-7.14,1.74q-41.38.15-82.76,0c-2.49,0-5.05,0-6.79-2.32Z" transform="translate(707.03 296.22)"/><path class="cls-27" d="M637,50h96V66c-1.6,2.12-3.94,2.29-6.28,2.3q-42.07.21-84.13,0a11,11,0,0,1-6.18-1.61C634,61,633.16,55.43,637,50Z" transform="translate(707.03 296.22)"/><path class="cls-28" d="M637,66h96V82c-1.6,2.12-3.94,2.29-6.28,2.3q-42.07.21-84.13,0a11,11,0,0,1-6.18-1.61C634,77,633.16,71.43,637,66Z" transform="translate(707.03 296.22)"/><path class="cls-26" d="M637,2h96V18H637C633.72,14,633.72,6,637,2Z" transform="translate(707.03 296.22)"/><path class="cls-23" d="M-707,18h96c3.9,5.32,2.81,10.88.8,16.49C-615.56,37.64-621.39,36-627,36.1c-24.56.58-49.11.23-73.67.2-2.34,0-4.69-.18-6.28-2.3Z" transform="translate(707.03 296.22)"/><path class="cls-29" d="M637,82h96V98c-1.6,2.12-3.94,2.29-6.28,2.3q-42.07.21-84.13,0a11,11,0,0,1-6.18-1.61C634,93,633.16,87.43,637,82Z" transform="translate(707.03 296.22)"/><path class="cls-30" d="M637,98h96v16c-1.6,2.12-3.94,2.29-6.28,2.3q-42.07.21-84.13,0a11,11,0,0,1-6.18-1.61C634,109,633.16,103.43,637,98Z" transform="translate(707.03 296.22)"/><path class="cls-31" d="M637,114h96v16c-1.6,2.12-3.94,2.29-6.28,2.3q-42.07.21-84.13,0a11,11,0,0,1-6.18-1.61C634,125,633.16,119.43,637,114Z" transform="translate(707.03 296.22)"/><path class="cls-32" d="M637,130h96v16H637C633.72,142,633.72,134,637,130Z" transform="translate(707.03 296.22)"/><path class="cls-25" d="M-707,34h80c3.75,5.38,3,11,.69,16.59-2.15,1.5-4.63,1.73-7.14,1.74q-33.39.15-66.77,0c-2.49,0-5,0-6.79-2.32Z" transform="translate(707.03 296.22)"/><path class="cls-28" d="M-707,82V66c1.46-1.94,3.59-2.26,5.79-2.28q34.62-.26,69.24,0a10.67,10.67,0,0,1,5.26,1.34c3.47,5.36,2.25,11,.88,16.59a3.86,3.86,0,0,1-1.38,1.43,11.27,11.27,0,0,1-5.29,1.19q-34.11.24-68.22,0C-703.06,84.29-705.4,84.12-707,82Z" transform="translate(707.03 296.22)"/><path class="cls-22" d="M-707,162V146c1.6-2.12,3.94-2.29,6.28-2.3q34.08-.21,68.17,0a10.92,10.92,0,0,1,6.17,1.63c2.65,5.69,2.48,11.41.17,17.15-2.42,1.84-5.28,1.85-8.1,1.86q-32.44.11-64.88,0C-702,164.32-705,164.63-707,162Z" transform="translate(707.03 296.22)"/><path class="cls-24" d="M-707,162h80c3.87,5.37,2.89,10.95.71,16.58-2.3,1.63-5,1.76-7.63,1.76q-32.89.12-65.79,0c-2.63,0-5.4.14-7.29-2.33Z" transform="translate(707.03 296.22)"/><path class="cls-30" d="M-707,114V98c1.6-2.12,3.94-2.29,6.28-2.3q34.08-.21,68.17,0a10.92,10.92,0,0,1,6.17,1.63c2.65,5.69,2.48,11.41.17,17.15-2.42,1.84-5.28,1.85-8.1,1.86q-32.44.11-64.88,0C-702,116.32-705,116.63-707,114Z" transform="translate(707.03 296.22)"/><path class="cls-29" d="M-627,98h-80V82h80C-623.72,86.21-623.72,94-627,98Z" transform="translate(707.03 296.22)"/><path class="cls-32" d="M-627,146h-80V130c1.59-2.12,3.94-2.29,6.28-2.3q34.07-.21,68.14,0a11,11,0,0,1,6.17,1.61C-624,135-623.16,140.57-627,146Z" transform="translate(707.03 296.22)"/><path class="cls-31" d="M-627,130h-80V114h80C-623.72,118-623.72,126-627,130Z" transform="translate(707.03 296.22)"/><path class="cls-33" d="M653,290h80v16H653A14.37,14.37,0,0,1,653,290Z" transform="translate(707.03 296.22)"/><path class="cls-27" d="M-627,66h-80V50h80C-623.72,54-623.72,62-627,66Z" transform="translate(707.03 296.22)"/><path class="cls-34" d="M-707,178h80c4,5.32,2.59,10.9.78,16.5-3.43,2.84-7.54,1.53-11.38,1.82-1.8.14-3.61-.19-5.42-.22-19.06.59-38.13.21-57.2.21-2.48,0-5,0-6.77-2.32Z" transform="translate(707.03 296.22)"/><path class="cls-34" d="M669,178h64v16c-1.59,2.12-3.93,2.28-6.27,2.3q-26.08.22-52.15,0a11.08,11.08,0,0,1-6.17-1.6C665.95,189,665.28,183.44,669,178Z" transform="translate(707.03 296.22)"/><path class="cls-35" d="M-707,194h64c3.85,4.74,2.48,10.06,1.47,15.21-.43,2.16-2.68,2.74-4.79,2.93a82.61,82.61,0,0,1-12.48,0c-13.79.55-27.6.24-41.4.21-2.49,0-5.05,0-6.8-2.32Z" transform="translate(707.03 296.22)"/><path class="cls-35" d="M669,194h64v16c-1.74,2.3-4.29,2.29-6.78,2.32-8.46.08-16.93.27-25.39-.21-8.6.49-17.2.37-25.8.18-7-.15-8.3-1.42-8.29-8.66C666.75,200.33,665.58,196.57,669,194Z" transform="translate(707.03 296.22)"/><path class="cls-36" d="M-707,210h48c3.78,5.37,2.94,10.88.5,16.44a8.44,8.44,0,0,1-5.54,1.82c-12.56.21-25.13.23-37.69,0A6.28,6.28,0,0,1-707,226Z" transform="translate(707.03 296.22)"/><path class="cls-37" d="M-707,226h48l.8.51c2.47,5.15,2,10.34.19,15.55a3.66,3.66,0,0,1-1.47,1.25,14.66,14.66,0,0,1-6.34,1c-11.3.07-22.6.1-33.89,0-2.63,0-5.4.13-7.29-2.33Z" transform="translate(707.03 296.22)"/><path class="cls-38" d="M-707,242h48c3.25,4.22,3.25,11.59,0,16h-48Z" transform="translate(707.03 296.22)"/><path class="cls-38" d="M733,258H701c-3.78-5.37-2.94-10.88-.5-16.44a8.54,8.54,0,0,1,5.52-1.82c7.25-.2,14.49-.22,21.74,0,2,.06,3.92.52,5.25,2.25Z" transform="translate(707.03 296.22)"/><path class="cls-36" d="M701,210h32v16a5.71,5.71,0,0,1-4.32,2.17c-8,.33-16,.38-24,0a7.19,7.19,0,0,1-4.13-1.59C698,221,697.23,215.42,701,210Z" transform="translate(707.03 296.22)"/><path class="cls-37" d="M701,226h32v16H701l-.79-.49a17.16,17.16,0,0,1,0-15Z" transform="translate(707.03 296.22)"/><path class="cls-33" d="M-707,290h32a14.37,14.37,0,0,1,0,16h-32Z" transform="translate(707.03 296.22)"/><path class="cls-39" d="M-451,322V306c5-4,10.2-2.7,15.46-.81l.54.81v16Z" transform="translate(707.03 296.22)"/><path class="cls-39" d="M-99,322V306l.49-.78a17.16,17.16,0,0,1,15,0l.49.79v16Z" transform="translate(707.03 296.22)"/><path class="cls-39" d="M349,306v16H333V306l.54-.81C338.8,303.3,344,302,349,306Z" transform="translate(707.03 296.22)"/><path class="cls-40" d="M-195-78h48c3.16,2.68,2.12,6.38,2.34,9.76a52.81,52.81,0,0,1-.27,6c0,1.66.21,3.32.28,5,.34,8.34.91,8.88,9.46,8.92,10,0,20-.09,30,.08,2.43,0,5.08-.36,7,1.79,2.56,5.26,1.34,10.82,1.26,16.28a111,111,0,0,1,0,16.17,107.86,107.86,0,0,1,0,16,107,107,0,0,1,0,16,106.93,106.93,0,0,1,0,16,106.94,106.94,0,0,1,0,16,106.94,106.94,0,0,1,0,16,106.94,106.94,0,0,1,0,16,106.94,106.94,0,0,1,0,16,106.94,106.94,0,0,1,0,16,106.94,106.94,0,0,1,0,16,107,107,0,0,1,0,16,107.48,107.48,0,0,1,0,16,112.1,112.1,0,0,1,0,16.17c-.12,5.51,1.66,11.21-1.65,16.39-5.43,2.78-11,2.27-16.59.64-2.05-2.06-2-4.76-2.19-7.39-.41-6.39-1.34-7.28-7.85-7.38-5.46-.09-10.92.1-16.37-.11-2.26-.09-4.72.2-6.38-2a11.58,11.58,0,0,1-1.34-5.75c0-19.37-.43-38.75.21-58.11-.64-16.92-.17-33.84-.29-50.76-.08-10.8,0-10.8-10.53-11.42-1.16-.07-2.31-.22-3.48-.18a71.63,71.63,0,0,1-11.45.13c-4.8-.39-6-1.59-6.38-6.48a62.84,62.84,0,0,1,.14-10.93c0-3-.35-5.94-.37-8.92,0-3.69-2-5.42-5.59-5.45-10.6-.08-21.2-.06-31.8,0-3.94,0-5.67,2-5.78,5.84-.09,3.1.22,6.36-2.2,8.92-5.58,1.58-11.13,2.09-16.62-.33-3.19-5.26-1.6-11-1.64-16.57a112.48,112.48,0,0,1,0-16.22,108.58,108.58,0,0,1,0-16,111.54,111.54,0,0,1,0-16.14c-.06-5.44-1.24-11,1.15-16.23,2-2.41,4.81-1.91,7.38-2,10.1-.18,20.2,0,30.29-.09,7.81,0,8.6-.81,8.89-8.39.07-1.82.32-3.63.3-5.46a81.52,81.52,0,0,1-.19-10.46C-197.16-74.76-196.74-76.66-195-78Z" transform="translate(707.03 296.22)"/><path class="cls-40" d="M541-62v32c-1.49,2.67-4.16,2.13-6.51,2.3a63.78,63.78,0,0,1-9.24-.22c-1.82,0-3.63.23-5.45.3-7.54.29-8.33,1.13-8.41,8.91-.18,17.72.36,35.44-.31,53.16.49,5.81.3,11.63.3,17.44q0,58.3,0,116.61c0,3.4.76,7-1.62,10.09a8.21,8.21,0,0,1-4.13,1.53,235.24,235.24,0,0,1-25.24,0,8.43,8.43,0,0,1-3.74-1.22c-2.68-2.53-1.92-5.9-1.94-9-.13-23.81-.05-47.62-.07-71.43,0-1.33,0-2.66,0-4-.05-9.23-.86-10.09-9.9-10.11-19.65,0-39.29,0-58.94,0-3.13,0-6.38.32-9.15-1.71-3.36-5.17-1.58-10.87-1.68-16.37a112.86,112.86,0,0,1,0-16.23,112.76,112.76,0,0,1,0-16.18c-.05-5.46-1.28-11,1.2-16.29,2.2-2.45,5.2-1.86,7.94-1.89,14.77-.15,29.54,0,44.31-.07,9.45,0,9.85-.4,10.31-9.61.07-1.33.26-2.64.25-4a106,106,0,0,1,0-16,107.41,107.41,0,0,1,0-16,107.63,107.63,0,0,1,0-16,111.43,111.43,0,0,1,0-16.14,87.6,87.6,0,0,1-.2-10.23c.1-2.16.4-4.22,2.29-5.65h80Z" transform="translate(707.03 296.22)"/><path class="cls-17" d="M461-78v16c-1.34,1.76-3.24,2.17-5.31,2.27-2.5.12-5,.12-7.49.12H167.56c-3.5,0-7-.05-10.48-.29-35.05.64-70.11.13-105.16.27-7.64,0-15.28.23-22.92-.26-9,.51-18,.26-26.95.26q-69.38,0-138.76,0c-3.53,0-7.44,1-10.29-2.34V-78Z" transform="translate(707.03 296.22)"/><path class="cls-17" d="M-195-78v16c-1.6,2.13-3.95,2.3-6.29,2.3-35.21,0-70.42.41-105.63-.2q-40,.69-80.06,0c-14.62.59-29.24.24-43.86.26q-52.84.09-105.67,0c-3.3,0-6.67.35-9.84-1a4,4,0,0,1-1.59-1.18c-1.75-5.51-2.86-11,.94-16.17Z" transform="translate(707.03 296.22)"/><path class="cls-41" d="M-547-78v16c-4.22,3.25-11.59,3.25-16,0V-78Z" transform="translate(707.03 296.22)"/><path class="cls-33" d="M61,306H-83c-3.78-5.38-2.94-10.89-.49-16.45,2.21-1.87,4.92-1.88,7.58-1.89q65.17-.12,130.35,0c2.44,0,5.05-.29,7.13,1.59C63.79,294.93,64.86,300.55,61,306Z" transform="translate(707.03 296.22)"/><path class="cls-33" d="M221,306H93c-3.8-5.32-2.76-10.87-.8-16.48,3.36-2.88,7.44-1.54,11.23-1.85a48.91,48.91,0,0,1,5.36.24,120.52,120.52,0,0,1,16.5,0c30.24-.62,60.47-.26,90.71-.18,2,0,4,0,5.6,1.58C223.76,295,224.86,300.57,221,306Z" transform="translate(707.03 296.22)"/><path class="cls-33" d="M333,306H253c-3.88-5.38-2.71-11-.68-16.6,1.52-1.66,3.6-1.65,5.56-1.66,23.13-.22,46.26-.18,69.39,0a9.43,9.43,0,0,1,6.13,1.71C336,295,336.77,300.56,333,306Z" transform="translate(707.03 296.22)"/><path class="cls-42" d="M93,290v16H61V290c1-1.92,2.81-2.14,4.64-2.21q11.36-.44,22.72,0C90.19,287.86,92,288.08,93,290Z" transform="translate(707.03 296.22)"/><path class="cls-42" d="M253,290v16H221V290c1-1.92,2.81-2.14,4.64-2.21q11.36-.44,22.72,0C250.19,287.86,252,288.08,253,290Z" transform="translate(707.03 296.22)"/><path class="cls-33" d="M477,290H621a14.37,14.37,0,0,1,0,16H477A14.37,14.37,0,0,1,477,290Z" transform="translate(707.03 296.22)"/><path class="cls-33" d="M381,290h64a14.37,14.37,0,0,1,0,16H381C377.75,301.59,377.75,294.22,381,290Z" transform="translate(707.03 296.22)"/><path class="cls-42" d="M333,306V290l.51-.8c5.08-2.84,10.52-1.12,15.81-1.27,5.5.17,11.2-1.76,16.42,1.52,1.92,5.61,3.15,11.2-.74,16.55H333Z" transform="translate(707.03 296.22)"/><path class="cls-42" d="M445,306V290h32v16Z" transform="translate(707.03 296.22)"/><path class="cls-42" d="M621,306V290h32v16Z" transform="translate(707.03 296.22)"/><path class="cls-43" d="M365,306V290c4.06-3.26,11.58-3.26,16,0v16Z" transform="translate(707.03 296.22)"/><path class="cls-44" d="M381,290H349c-3.73-5.31-2.9-10.8-.67-16.35.25-.21.48-.55.77-.61a69.74,69.74,0,0,1,31.34.13l.56.83Z" transform="translate(707.03 296.22)"/><path class="cls-45" d="M397,258v16H381c-3.75-5.25-2.83-10.73-.77-16.25,5.3-3.13,10.72-2.76,16.21-.58Z" transform="translate(707.03 296.22)"/><path class="cls-33" d="M-339,306h-96c-3.91-5-2.52-10.44-1.09-15.85a3.65,3.65,0,0,1,1.42-1.35c2.48-1.24,5.17-1.16,7.82-1.16q39.93-.06,79.85,0c2.92,0,6.05-.55,8.6,1.65C-336.25,295-335.13,300.57-339,306Z" transform="translate(707.03 296.22)"/><path class="cls-33" d="M-99,306h-48c-3.88-5.38-2.71-11-.68-16.6,1.52-1.66,3.59-1.63,5.56-1.67,12.47-.22,24.93-.18,37.4,0,2.18,0,4.33.27,6.12,1.71C-96,295-95.23,300.56-99,306Z" transform="translate(707.03 296.22)"/><path class="cls-33" d="M-179,306h-48c-3.88-5.39-2.71-11-.67-16.61,1.67-1.76,3.91-1.64,6-1.68q18.57-.29,37.14,0c2.11,0,4.34-.11,6.07,1.56C-176.21,294.93-175.14,300.55-179,306Z" transform="translate(707.03 296.22)"/><path class="cls-33" d="M-259,306h-48c-3.88-5.39-2.71-11-.67-16.61,1.67-1.76,3.91-1.64,6-1.68q18.57-.29,37.14,0c2.11,0,4.34-.11,6.07,1.56C-256.21,294.93-255.14,300.55-259,306Z" transform="translate(707.03 296.22)"/><path class="cls-42" d="M-307,290v16h-32V290c1-1.92,2.81-2.14,4.64-2.21q11.36-.44,22.72,0C-309.81,287.86-308,288.08-307,290Z" transform="translate(707.03 296.22)"/><path class="cls-42" d="M-259,306V290c1-1.92,2.81-2.14,4.64-2.21q11.36-.44,22.72,0c1.83.07,3.66.29,4.64,2.21v16Z" transform="translate(707.03 296.22)"/><path class="cls-42" d="M-179,306V290c1-1.92,2.81-2.14,4.64-2.21q11.36-.44,22.72,0c1.83.07,3.66.29,4.64,2.21v16Z" transform="translate(707.03 296.22)"/><path class="cls-46" d="M701,242v16H397c-3.78-5.38-2.94-10.89-.49-16.45,2.69-2.21,5.94-1.89,9.07-1.9,17.48-.08,35,0,52.43,0q116.1,0,232.19.06C693.89,239.67,698,238.6,701,242Z" transform="translate(707.03 296.22)"/><path class="cls-33" d="M-563,290h96a14.37,14.37,0,0,1,0,16h-96A14.37,14.37,0,0,1-563,290Z" transform="translate(707.03 296.22)"/><path class="cls-33" d="M-643,290h48a14.37,14.37,0,0,1,0,16h-48A14.37,14.37,0,0,1-643,290Z" transform="translate(707.03 296.22)"/><path class="cls-42" d="M-643,290v16h-32V290Z" transform="translate(707.03 296.22)"/><path class="cls-42" d="M-595,306V290h32v16Z" transform="translate(707.03 296.22)"/><path class="cls-42" d="M-467,306V290h16c4.41-3.25,11.78-3.25,16,0v16h-32Z" transform="translate(707.03 296.22)"/><path class="cls-46" d="M-659,258V242a6.13,6.13,0,0,1,4.8-2.23c1.83-.1,3.66-.15,5.49-.15q94.07,0,188.13,0c3.3,0,6.7-.37,9.72,1.51,3.34,5.3,2.83,10.76.69,16.29l-.83.57Z" transform="translate(707.03 296.22)"/><path class="cls-47" d="M-451,274V258c5.24-3.75,10.71-2.81,16.24-.79,3.31,5.26,2.39,10.79,1,16.35A3.69,3.69,0,0,1-435,275C-440.48,276.55-445.91,277.92-451,274Z" transform="translate(707.03 296.22)"/><path class="cls-48" d="M-451,274h16c3.25,4.22,3.25,11.59,0,16h-16Z" transform="translate(707.03 296.22)"/><path class="cls-49" d="M509,178V34c1.47-1.91,3.58-2.15,5.78-2.34,7-.59,7.78-1.41,7.81-8.58.08-15.1,0-30.21.07-45.31,0-2.79-.27-5.73,2.34-7.77H637V178c-1.53,2.76-4.27,2.25-6.66,2.3-10.15.2-20.3,0-30.44.11-7.2.06-8.08.91-8.56,7.86s-1.42,7.91-8.53,8c-10.48.21-21,0-31.44.1-6.65.07-7.84,1.29-8,7.91-.09,5,0,10-.07,15-.05,2.67-.11,5.35-1.9,7.6-1.48,1.38-3.38,1.34-5.18,1.37q-19.18.34-38.36,0c-1.8,0-3.69,0-5.23-1.24-1.67-1.85-1.83-4.18-2-6.51-.57-7.27-1.4-8.09-8.84-8.11-16.1-.06-32.2,0-48.3,0-11.95-.07-23.9.4-35.83-.31-3,0-5.9.39-8.86.37-3.68,0-5.3,1.88-5.46,5.49-.15,3.2.49,6.69-2.51,9.15-10.78,1.89-21.53,2.62-32.24-.42-1.67-1.86-1.91-4.17-1.92-6.51-.07-8.6-.33-17.21.22-25.8a113.25,113.25,0,0,1,0-16.24,108.31,108.31,0,0,1,0-16,107.57,107.57,0,0,1,0-16,111.14,111.14,0,0,1,0-16.12c0-5.42-1.33-10.93,1.25-16.14,2.24-2.21,5.13-2.06,7.93-2.09,9.94-.11,19.88,0,29.83-.06,7.65,0,8.41-.82,8.71-8.57.07-1.66.28-3.3.3-5,.09-5.22-1.54-10.57,1.26-15.57L397,82h77.37c3,0,2.63-.14,2.63,2.66q0,46.67,0,93.34c2.51,1.85,2.22,4.61,2.38,7.24.33,5.35,1.22,6.24,6.66,6.35q7,.14,13.93,0c5.43-.11,6.33-1,6.66-6.35C506.78,182.61,506.49,179.85,509,178Z" transform="translate(707.03 296.22)"/><path class="cls-49" d="M-563-62h16c3.22,2.76,2.1,6.56,2.33,10a55.59,55.59,0,0,1-.26,5.82,107.31,107.31,0,0,1,0,16c.07,2.33.25,4.65.36,7,.25,5.35,1.52,6.58,7.06,6.73,5.82.16,11.65-.12,17.47.16s6.9,1.44,7.34,7.18C-512.1-1-512-.92-504-.29c5.76.45,7.07,1.58,7.22,7.29.23,9,.39,18-.18,26.94.66,12.3.17,24.62.32,36.92.1,7.59.71,8.28,8.08,8.8,2.34.17,4.66.33,6.55,2,1.45,1.86,1.27,4.09,1.29,6.2q.22,26.08,0,52.17c0,2.12.15,4.34-1.2,6.23-2.6,2.34-5.85,2.08-9,2.1-14.63.09-29.26,0-43.89,0-9,0-9.46.48-9.91,9.55-.07,1.49-.29,3-.24,4.49.53,8.82.41,17.65.16,26.47-.17,5.82-1.47,7.25-7.11,7.33-23.14.32-46.29.23-69.44,0-2.12,0-4.44.09-5.7-2.27V82c1.47-1.91,3.57-2.16,5.78-2.34,7.08-.56,7.77-1.31,7.82-8.52.07-10,0-19.92.06-29.87,0-2.64-.11-5.39,2.34-7.27V2c4.79,0,9.58,0,14.37,0,1.29,0,1.68-.37,1.66-1.66-.07-4.79,0-9.58,0-14.37,1.6-2.11,3.91-2.28,6.28-2.33,5.65-.11,11.3.08,16.95-.11,4.91-.17,6-1.3,6.38-6.29.2-2.63-.08-5.4,2.39-7.27V-62Z" transform="translate(707.03 296.22)"/><path class="cls-40" d="M-563-30c0,4.8-.05,9.61,0,14.41,0,1.38-.5,1.62-1.72,1.61-10.1,0-20.21,0-30.31,0V-30Z" transform="translate(707.03 296.22)"/><path d="M541,226c0-10,.07-19.95-.06-29.92,0-1.94.62-2.12,2.26-2.12,13.8.06,27.59,0,41.39,0,1,0,2-.05,3,0s1.44-.31,1.43-1.39c0-4.16.08-8.31-.06-12.47-.06-1.75.33-2.23,2.17-2.21,14.29.09,28.59.05,42.89.05h35v16c0,4.8.05,9.61,0,14.41,0,1.38.5,1.62,1.72,1.61,10.1,0,20.21,0,30.31,0v16c-2,2.63-5,2.31-7.81,2.34-13,.13-26,.05-39,.05-34.66,0-69.33.06-104-.07C547,228.3,543.39,229.39,541,226Z" transform="translate(707.03 296.22)"/><path class="cls-50" d="M-611,34c0,15.26,0,30.53,0,45.79,0,1.61-.12,2.36-2.1,2.27-4.64-.19-9.29-.06-13.93-.06V34Z" transform="translate(707.03 296.22)"/><path d="M-627,194h74.8a26.23,26.23,0,0,1,3,0c1.65.19,2.29-.16,2.27-2.1-.13-10-.06-19.95-.06-29.92,1.6-2.13,3.95-2.28,6.29-2.3q25.91-.23,51.83,0a12.13,12.13,0,0,1,6.25,1.41c2,1.53,1.82,3.81,1.91,5.93.23,5.48,0,11,.13,16.45.12,6.78,1.38,8,8.31,8.12,5.48.09,11-.15,16.44.16s6.82,1.57,7.06,6.89c.34,7.47.24,14.95,0,22.42a8.26,8.26,0,0,1-1.87,5.55c-2.29,1.74-5,1.73-7.65,1.73q-96.47.11-192.94,0c-2.78,0-5.76.3-7.81-2.34V210c4.79,0,9.58,0,14.37,0,1.29,0,1.68-.37,1.66-1.66-.07-4.79,0-9.58,0-14.37Z" transform="translate(707.03 296.22)"/><path class="cls-51" d="M-659,226h208l.78.49a17.16,17.16,0,0,1,0,15l-.79.49H-659Z" transform="translate(707.03 296.22)"/><path class="cls-51" d="M541,226H701v16H397l-.8-.51c-2.47-5.17-2-10.38-.17-15.61a3.7,3.7,0,0,1,1.5-1.22,12.38,12.38,0,0,1,5.36-1q41.91-.17,83.81,0c2.35,0,4.7.18,6.3,2.3Z" transform="translate(707.03 296.22)"/><path class="cls-52" d="M-99,306V290l.49-.78a17.16,17.16,0,0,1,15,0l.49.79v16Z" transform="translate(707.03 296.22)"/><path class="cls-49" d="M-115,194h16l.8.51c2.84,5.08,1.12,10.52,1.27,15.81-.09,5.48,1.69,11.16-1.68,16.3-2,1.52-4.3,1.68-6.63,1.69-17.43.11-34.86.14-52.28,0-2,0-4,.09-5.74-1.21-2-2.13-1.91-4.83-2.1-7.48-.43-6-1.53-7.14-7.68-7.18-15.11-.12-30.21,0-45.32-.08-2.95,0-6,.42-8.77-1.11-2.32-2.39-2.06-5.47-2.24-8.44-.33-5.34-1.26-6.28-6.7-6.39-4.83-.1-9.67-.14-14.5,0s-5.72,1.21-6,6c-.17,2.82,0,5.69-1.66,8.21-1.66,1.78-3.89,1.51-6,1.63-7.8.45-7.95.57-8.44,8.14-.16,2.46-.27,4.94-2.24,6.82-15.88,2-31.76,1.52-47.65.26-.28,0-.54-.37-.81-.56-2.28-2.85-2-6.27-2-9.57-.07-18.67,0-37.33,0-56,0-1.83,0-3.67,0-5.5-.2-6-1.51-7.39-7.47-7.45-13.33-.13-26.67,0-40,0-1.5,0-3,0-4.5,0-5.44.22-6.76,1.45-7.22,6.76-.12,1.33-.15,2.66-.31,4-.36,2.85-1.88,4.74-4.79,4.86-14.15.58-28.31.61-42.47,0a6.57,6.57,0,0,1-3.65-1.51c-1.72-1.94-1.47-4.37-1.49-6.65-.14-17.11-.19-34.23,0-51.34.08-7.6,1.2-8.7,8.72-8.82,8.47-.15,16.94-.31,25.41.2,26.6-.44,53.2-.52,79.8,0,2.32,0,4.63-.24,6.95-.34,5.63-.25,6.95-1.52,7-7.29.15-15.58,0-31.17.12-46.75,0-2.88-.66-6.06,1.92-8.43a13.13,13.13,0,0,1,6.75-1.44q25.43-.15,50.86,0c2.49,0,5.05,0,6.79,2.32h16c1.6-2.13,4-2.27,6.3-2.3q17.7-.22,35.41,0c2.35,0,4.7.17,6.3,2.3,0,4.79,0,9.58,0,14.37,0,1.29.37,1.68,1.66,1.66,4.79-.07,9.58,0,14.37,0,2.61,2,2.32,5,2.34,7.77.1,14.94,0,29.87.06,44.81,0,7.76.58,8.36,8.32,9.11,2.05.2,3.93.58,5.28,2.3v64c-1.62,3-4.58,2.12-7.09,2.35-4.93.44-6.43,1.68-6.41,5.65s1.63,5.5,6.45,5.57c10.6.16,21.21,0,31.81.09C-119.6,191.69-116.87,191.52-115,194Z" transform="translate(707.03 296.22)"/><path class="cls-19" d="M-147-62H29c3.75,5.38,3,11,.69,16.59-2.47,1.72-5.31,1.75-8.14,1.76q-56.38.09-112.76,0C-94-43.67-97-43.37-99-46c-15.26,0-30.53,0-45.79,0-1.61,0-2.36-.12-2.27-2.1C-146.87-52.7-147-57.35-147-62Z" transform="translate(707.03 296.22)"/><path class="cls-20" d="M-99-14V-30c2.36-2.91,5.71-2.33,8.79-2.34,22.27-.1,44.55,0,66.82,0,14.63,0,29.26,0,43.88,0,3.14,0,6.35-.16,9.16,1.73,2.88,5,1.81,10.28,1,15.46-.38,2.39-2.71,3.12-5,3.32a84,84,0,0,1-12.42,0c-35.13.59-70.27.19-105.4.21C-94.69-11.68-97.26-11.69-99-14Z" transform="translate(707.03 296.22)"/><path class="cls-18" d="M29-30H-99V-46H29C32.28-42,32.28-34,29-30Z" transform="translate(707.03 296.22)"/><path class="cls-19" d="M-307-62h112c0,4.65-.13,9.3.06,13.93.08,2-.66,2.11-2.27,2.1-15.26-.06-30.53,0-45.79,0-1.59,2.12-3.93,2.28-6.27,2.3q-26.08.22-52.15,0a11.08,11.08,0,0,1-6.17-1.6C-310.05-51-310.72-56.56-307-62Z" transform="translate(707.03 296.22)"/><path class="cls-21" d="M-99-14H13c3.75,5.38,3,11,.69,16.59C11.23,4.31,8.38,4.35,5.55,4.35q-48.38.09-96.76,0C-94,4.33-97,4.63-99,2Z" transform="translate(707.03 296.22)"/><path class="cls-26" d="M-99,2H13c4,5.35,2.61,10.94.73,16.55-1.64,1.82-3.89,1.72-6,1.73-14.23.09-28.47.38-42.7-.17-19.08.57-38.17.21-57.25.2-2.49,0-5,0-6.78-2.32Z" transform="translate(707.03 296.22)"/><path class="cls-18" d="M-307-46h64v16c-1.59,2.12-3.93,2.28-6.27,2.3q-26.08.22-52.16,0a11,11,0,0,1-6.16-1.61C-310-35-310.85-40.57-307-46Z" transform="translate(707.03 296.22)"/><path class="cls-20" d="M-307-30h64v16c-1.59,2.12-3.93,2.28-6.27,2.3q-26.08.22-52.16,0a11,11,0,0,1-6.16-1.61C-310-19-310.85-24.57-307-30Z" transform="translate(707.03 296.22)"/><path class="cls-21" d="M-307-14h64V2c-1.59,2.12-3.93,2.28-6.27,2.3q-26.08.22-52.16,0a11,11,0,0,1-6.16-1.61C-310-3-310.85-8.57-307-14Z" transform="translate(707.03 296.22)"/><path class="cls-26" d="M-307,2h64V18c-1.59,2.12-3.93,2.28-6.27,2.3q-26.08.22-52.16,0a11,11,0,0,1-6.16-1.61C-310,13-310.85,7.43-307,2Z" transform="translate(707.03 296.22)"/><path class="cls-23" d="M-307,18h64V34h-64C-310.28,30-310.28,22-307,18Z" transform="translate(707.03 296.22)"/><path class="cls-23" d="M-99,18h64c3.78,5.37,2.94,10.89.5,16.45a8.4,8.4,0,0,1-5.55,1.81q-26.83.31-53.67,0A6.25,6.25,0,0,1-99,34Z" transform="translate(707.03 296.22)"/><path class="cls-27" d="M-99,66V50c1.59-2.12,3.93-2.28,6.27-2.3q26.09-.22,52.19,0a10.94,10.94,0,0,1,6.16,1.63c2.65,5.69,2.48,11.41.17,17.15-2.42,1.84-5.28,1.84-8.1,1.86q-24.44.12-48.89,0C-94,68.31-97,68.63-99,66Z" transform="translate(707.03 296.22)"/><path class="cls-50" d="M-147,114c-4.65,0-9.31-.14-13.95.06-2,.09-2.09-.71-2.08-2.29Q-163,80.89-163,50c4.65,0,9.31.14,13.95-.06,2-.09,2.09.71,2.08,2.29Q-147,83.11-147,114Z" transform="translate(707.03 296.22)"/><path class="cls-28" d="M-99,66h64c3.87,5.37,2.89,10.95.71,16.58-2.14,1.51-4.62,1.74-7.13,1.75q-25.4.15-50.8,0c-2.49,0-5,0-6.78-2.32Z" transform="translate(707.03 296.22)"/><path class="cls-29" d="M-99,82h64c2.48,3.1,3.24,12.85,1.23,15.85-1.12,1.67-2.82,2.14-4.69,2.3a82.78,82.78,0,0,1-12.34,0c-13.8.55-27.6.24-41.41.21-2.49,0-5.06,0-6.8-2.32Z" transform="translate(707.03 296.22)"/><path class="cls-25" d="M-35,50H-99V34h64l.81.54C-32.3,39.8-31,45-35,50Z" transform="translate(707.03 296.22)"/><path class="cls-41" d="M-115,194h-44.45c-3.53,0-3.54,0-3.55-3.74,0-3.33,0-6.66,0-10,0-2.24,0-2.26,2.51-2.27,4.5,0,9,0,13.49,0,9.94,0,19.88,0,29.82,0,1.67,0,2.31.21,2.24,2.13C-115.12,184.72-115,189.36-115,194Z" transform="translate(707.03 296.22)"/><path class="cls-30" d="M-99,98h48c3.75,5.38,3,11,.69,16.59a10.7,10.7,0,0,1-6.13,1.7c-12.26.16-24.53.18-36.79,0-2.2,0-4.32-.34-5.78-2.28Z" transform="translate(707.03 296.22)"/><path class="cls-31" d="M-99,114h48c2.53,3.14,3.25,12.81,1.2,15.86-1.51,2.24-3.87,2.35-6.18,2.39-8.91.18-17.82.35-26.72-.15a107.62,107.62,0,0,1-11,.17c-2.06-.12-4-.51-5.31-2.27Z" transform="translate(707.03 296.22)"/><path class="cls-41" d="M-179,34h-48c.21-5.28-.42-10.57.34-15.84,5.14-.05,10.28-.14,15.42-.15q14.48,0,29,0c3.26,0,3.26,0,3.27,3.51C-179,25.68-179,29.84-179,34Z" transform="translate(707.03 296.22)"/><path class="cls-32" d="M-99,130h16c3.75,5.38,3,11,.68,16.59C-88,148.76-93.57,149.87-99,146Z" transform="translate(707.03 296.22)"/><path class="cls-34" d="M-99,194V178c5.4-3.87,11-2.73,16.63-.64a20.55,20.55,0,0,1,.12,17.16C-87.91,196.81-93.53,197.85-99,194Z" transform="translate(707.03 296.22)"/><path class="cls-24" d="M-83,178H-99V162c5.4-3.87,11-2.73,16.62-.65C-80,167-79.15,172.58-83,178Z" transform="translate(707.03 296.22)"/><path class="cls-22" d="M-83,162H-99V146h16C-79.72,150-79.72,158-83,162Z" transform="translate(707.03 296.22)"/><path class="cls-18" d="M461-46v16a6.13,6.13,0,0,1-4.81,2.23c-1.83.1-3.66.15-5.49.15q-142.06,0-284.13,0c-3.47,0-7,.35-10.19-1.69-2.66-5.69-2.48-11.41-.18-17.16,3.23-2.35,7-1.87,10.61-1.88q55.73-.08,111.45,0,86.21,0,172.42.05C454.23-48.33,458.14-49.29,461-46Z" transform="translate(707.03 296.22)"/><path class="cls-20" d="M157-30H461v16c-2.2,2.77-5.36,2.32-8.29,2.34q-27.17.17-54.34,0c-27.09-.11-54.17.38-81.26-.27q-32.07.69-64.15,0c-30,.58-59.93.2-89.89.21a11.59,11.59,0,0,1-6.69-1.65C154-19,153.15-24.58,157-30Z" transform="translate(707.03 296.22)"/><path class="cls-19" d="M461-46H157c-3.26-4.06-3.26-11.58,0-16H461Z" transform="translate(707.03 296.22)"/><path class="cls-21" d="M317-14H461V2c-2.19,2.77-5.36,2.32-8.28,2.34-17.28.11-34.56,0-51.84.05q-37.38,0-74.77,0c-3.3,0-6.69.27-9.68-1.66C313.94-3,313.28-8.55,317-14Z" transform="translate(707.03 296.22)"/><path class="cls-26" d="M317,2H461c0,4.65-.14,9.31.06,13.95.09,2-.71,2.09-2.29,2.08Q427.89,18,397,18c-1.59,2.12-3.94,2.29-6.28,2.3q-34.07.21-68.14,0a11,11,0,0,1-6.17-1.61C314,13,313.16,7.43,317,2Z" transform="translate(707.03 296.22)"/><path class="cls-23" d="M317,18h80V34c-1.74,2.3-4.3,2.31-6.79,2.32-19.11,0-38.23.38-57.35-.2a80.86,80.86,0,0,1-12.85,0c-3.07-.31-5.05-1.94-5-5C315,26.64,313,21.83,317,18Z" transform="translate(707.03 296.22)"/><path class="cls-50" d="M525-30V28.78c0,1-.08,2,0,3,.16,1.59-.05,2.38-2.07,2.29-4.64-.2-9.3-.06-13.95-.06V-24.78c0-1,.08-2,0-3-.16-1.59.05-2.38,2.07-2.29C515.69-29.86,520.35-30,525-30Z" transform="translate(707.03 296.22)"/><path class="cls-27" d="M397,50V66c-1.59,2.12-3.93,2.28-6.27,2.3q-26.09.22-52.19,0a10.94,10.94,0,0,1-6.16-1.63c-2.65-5.69-2.48-11.41-.17-17.15,2.42-1.84,5.28-1.84,8.1-1.86q24.44-.12,48.89,0C392,47.69,395,47.37,397,50Z" transform="translate(707.03 296.22)"/><path class="cls-28" d="M333,66h64V82c-1.59,2.12-3.93,2.28-6.27,2.3q-26.08.22-52.16,0a11,11,0,0,1-6.16-1.61C330,77,329.16,71.43,333,66Z" transform="translate(707.03 296.22)"/><path class="cls-25" d="M397,50H333c-3.26-4.06-3.26-11.58,0-16h64Z" transform="translate(707.03 296.22)"/><path class="cls-41" d="M509,178c-.21,5.28.42,10.57-.34,15.84-5.14.05-10.27.13-15.41.16-4.49,0-9,0-13.48,0-2.74,0-2.76,0-2.76-3,0-4.33,0-8.65,0-13Z" transform="translate(707.03 296.22)"/><path class="cls-40" d="M333,34V82c3.22,2.76,2.1,6.56,2.33,10a55.48,55.48,0,0,1-.26,5.82,109.89,109.89,0,0,1,0,16.12,107.43,107.43,0,0,1,0,16,106.8,106.8,0,0,1,0,16,105.08,105.08,0,0,1,0,15.94,93.34,93.34,0,0,1,0,15.5c0,2.78.45,5.54.35,8.33-.15,4.15,1.9,5.94,6,5.92,2.74,0,5.67-.3,7.63,2.35v32l-.51.8c-5.08,2.84-10.52,1.12-15.82,1.27-5.48-.14-11.14,1.71-16.36-1.45a11.08,11.08,0,0,1-1.6-6.17c0-13.93-.41-27.87.22-41.8,0-2.65-.24-5.3-.36-8-.22-4.91-1.42-6.15-6.39-6.25-9.14-.18-18.29-.06-27.43-.06-6.32,0-12.64-.12-19,.06-4.94.14-6,1.3-6.39,6.28-.19,2.81,0,5.68-1.86,8.12-2.45,2-5.38,1.47-8.15,1.49-15.13.12-30.26,0-45.39.07-7.39,0-8.19.85-8.7,8.25-.44,6.36-1.46,7.39-7.88,7.65-5.15.2-10.31,0-15.46.1-7.5.09-8.5,1.12-8.58,8.8,0,4.82,0,9.64-.06,14.46-.05,2.51-.21,5-1.78,7.14-1.59,1.53-3.64,1.45-5.59,1.48-8.89.13-17.78.36-26.67-.19a119,119,0,0,1-16.41,0c-5.51-.12-11.2,1.64-16.39-1.62-1.59-1.92-1.8-4.23-1.81-6.57-.06-8.62-.29-17.24.21-25.85-.43-21.18-.51-42.36,0-63.53-.6-12.26-.18-24.53-.3-36.79-.08-8.49-.56-9-8.93-9.37-1.66-.07-3.3-.32-5-.28-8.8.57-17.61.4-26.42.19-6.05-.15-7.28-1.46-7.58-7.41-.28-5.64,0-11.3-.16-16.95-.15-5.81-1.35-7.06-6.91-7.52-8.18-.66-8.86-1.4-9-9.64a63.34,63.34,0,0,1,.29-8c0-3-.4-5.94-.36-8.93,0-3.71-1.85-5.28-5.5-5.52-2.8-.18-6.14,1-8.08-2.34V-14c4.79,0,9.58,0,14.37,0,1.29,0,1.68-.37,1.66-1.66C29-20.42,29-25.21,29-30V-62H157v48c3.22,2.76,2.1,6.56,2.33,10a55.5,55.5,0,0,1-.26,5.82,109.86,109.86,0,0,1,0,16.12,107.4,107.4,0,0,1,0,16,107,107,0,0,1,0,16,106.94,106.94,0,0,1,0,16,106.94,106.94,0,0,1,0,16,106.94,106.94,0,0,1,0,16,106.37,106.37,0,0,1,0,16,98.9,98.9,0,0,1,0,15.73c.09,2.65.4,5.29.36,7.94-.06,4.19,2.09,6,6.16,6,15.59,0,31.17.11,46.76,0,4.88,0,6-1.34,6.24-6.35.11-2.48.31-5,.37-7.45a98.4,98.4,0,0,1,0-15.73,106.24,106.24,0,0,1,0-16,107,107,0,0,1,0-16,107.51,107.51,0,0,1,0-16,111,111,0,0,1,0-16.12c-.07-5.4-1.21-10.87,1.07-16.11,1.58-2.28,4.06-2,6.33-2.08,6-.22,12,.05,17.93-.15,4.92-.17,6.09-1.37,6.32-6.32.12-2.49.3-5,.37-7.46a103.7,103.7,0,0,1,0-15.91,86.67,86.67,0,0,1-.21-10.22c.1-2.16.4-4.21,2.29-5.64h64V18c0,4.79,0,9.58,0,14.37,0,1.29.37,1.68,1.66,1.66C323.42,34,328.21,34,333,34Z" transform="translate(707.03 296.22)"/><path class="cls-40" d="M-307,18V92.78c0,1-.08,2,0,3,.16,1.59-.05,2.38-2.07,2.29-4.64-.2-9.3-.06-13.95-.06-2.47-1.88-2.19-4.64-2.4-7.27-.4-4.93-1.54-6.23-6.44-6.27q-31.16-.23-62.32,0c-4.9,0-6,1.33-6.44,6.27-.21,2.63.07,5.4-2.4,7.27-10,0-19.94.07-29.91-.06-1.91,0-2.13.58-2.13,2.25q.09,30.91,0,61.81c2.13,1.6,2.28,4,2.3,6.31q.21,26,0,52a9.43,9.43,0,0,1-1.73,6.13C-440,229-445.57,229.77-451,226c0-8.83,0-17.65,0-26.48,0-1.78.81-4.08-.45-5.2-.94-.84-3.15-.31-4.79-.31-7.16,0-14.32,0-21.48,0-1.64,0-3.85.53-4.79-.31-1.26-1.12-.44-3.42-.45-5.2-.05-8.83,0-17.65,0-26.48a14.37,14.37,0,0,1,0-16V82c-2.45-1.88-2.31-4.63-2.34-7.27-.11-10,0-19.92-.06-29.87-.05-7.21-.74-8-7.82-8.52-2.21-.18-4.31-.42-5.78-2.34q0-14.48,0-29c0-3,0-3-3.24-3-3.66,0-7.33-.09-11,0-1.69.06-1.84-.68-1.81-2,.08-3.66,0-7.32,0-11,0-3,0-3-2.77-3-8,0-16,0-24,0-1.64,0-3.84.53-4.79-.31-1.26-1.12-.41-3.41-.45-5.2-.08-3.49,0-7,0-10.48,1.6-2.13,4-2.29,6.31-2.3q34.21-.21,68.43,0c2,0,4-.09,5.69,1.39,3.23,5.26,1.62,11,1.66,16.58a113,113,0,0,1,0,16.23,108,108,0,0,1,0,16,106.45,106.45,0,0,1,0,16,98.91,98.91,0,0,1,0,15.73c.09,2.65.4,5.29.36,7.94-.06,4.19,2.09,6,6.16,6,15.59,0,31.17.11,46.76,0,4.88,0,6-1.34,6.24-6.35.11-2.48.31-5,.37-7.45a98.42,98.42,0,0,1,0-15.73,106.72,106.72,0,0,1,0-16,110,110,0,0,1,0-16.08c-.1-5.33-1.13-10.72,1-15.91,2-3.06,5.23-2.16,8.06-2.36,5.63-.4,6.51-1.15,6.67-6.76.07-2.46.36-4.9.36-7.37a97.78,97.78,0,0,1,0-15.71,85,85,0,0,1-.21-10.2c.1-2.16.41-4.2,2.28-5.63h80V18Z" transform="translate(707.03 296.22)"/><path class="cls-19" d="M-387-62v16c-2,2.63-5,2.31-7.81,2.34-13,.13-26,.05-39,.05-34.47,0-68.95,0-103.42,0-3.38,0-7.11.84-9.8-2.34V-62Z" transform="translate(707.03 296.22)"/><path class="cls-15" d="M93,290H-83c-3.78-5.38-2.94-10.89-.49-16.45,2.21-1.87,4.91-1.88,7.57-1.89q88.85-.13,177.7,0c2.65,0,5.36,0,7.63,1.75,2.61,5.6,3.37,11.15-.4,16.59Z" transform="translate(707.03 296.22)"/><path class="cls-15" d="M253,290H125c-3.78-5.38-2.94-10.89-.49-16.45,3.18-2.51,7-1.9,10.57-1.91q74.38-.09,148.76,0c13.65,0,27.29-.05,40.94,0,3,0,6-.23,8.63,1.76,2.61,5.6,3.37,11.15-.4,16.59Z" transform="translate(707.03 296.22)"/><path class="cls-53" d="M125,274v16H109V274l.49-.78a17.16,17.16,0,0,1,15,0Z" transform="translate(707.03 296.22)"/><path class="cls-48" d="M333,290V274l.49-.78a17.16,17.16,0,0,1,15,0l.49.79v16Z" transform="translate(707.03 296.22)"/><path class="cls-54" d="M381,258v16H349c-3.73-5.31-2.9-10.8-.67-16.35.25-.21.48-.55.77-.61a69.74,69.74,0,0,1,31.34.13Z" transform="translate(707.03 296.22)"/><path class="cls-55" d="M397,242v16H381c-3.92-5-2.44-10.32-1.21-15.67a3.62,3.62,0,0,1,1.32-1.42C386.53,239.48,391.95,238.08,397,242Z" transform="translate(707.03 296.22)"/><path class="cls-15" d="M-435,290V274a6.16,6.16,0,0,1,4.81-2.23c2.17-.12,4.33-.16,6.5-.16q157,0,313.95,0c3.77,0,7.72-.68,11.14,1.77C-96,279-95.23,284.56-99,290H-435Z" transform="translate(707.03 296.22)"/><path class="cls-56" d="M-435,258h-16V242c4.87-3.94,10.21-2.36,15.5-1.33a3.66,3.66,0,0,1,1.48,1.19c1.8,5.23,2.3,10.44-.18,15.63Z" transform="translate(707.03 296.22)"/><path class="cls-16" d="M-99,274H-435V258a6.13,6.13,0,0,1,4.81-2.23c1.83-.1,3.66-.15,5.49-.15q158.05,0,316.11,0c3.3,0,6.7-.37,9.73,1.5,3.35,5.3,2.83,10.76.7,16.29Z" transform="translate(707.03 296.22)"/><path d="M493,226H397c-3.25-4.22-3.25-11.59,0-16h92.76c3.22,0,3.23,0,3.24,3C493,217.36,493,221.68,493,226Z" transform="translate(707.03 296.22)"/><path class="cls-29" d="M333,98V82h64V98c-1.59,2.11-3.92,2.29-6.25,2.3-13.87,0-27.74.39-41.6-.21a99.18,99.18,0,0,1-10.89.18C336.21,100.15,334.33,99.74,333,98Z" transform="translate(707.03 296.22)"/><path class="cls-57" d="M349,98h48c0,4.65-.13,9.3.06,13.93.08,2-.66,2.11-2.27,2.1-15.26-.06-30.53,0-45.79,0l-.81-.53C346.1,108.19,345.3,103,349,98Z" transform="translate(707.03 296.22)"/><path class="cls-58" d="M349,226h32l.81.53C383.9,231.81,384.7,237,381,242a5.71,5.71,0,0,1-4.32,2.17c-8,.33-16,.38-24,0a7.19,7.19,0,0,1-4.13-1.59C346,237,345.23,231.42,349,226Z" transform="translate(707.03 296.22)"/><path class="cls-31" d="M333,130V114a14.37,14.37,0,0,1,16,0v16A14.37,14.37,0,0,1,333,130Z" transform="translate(707.03 296.22)"/><path class="cls-34" d="M349,194c-4.79,0-9.58,0-14.37,0-1.29,0-1.68-.37-1.66-1.66.07-4.79,0-9.58,0-14.37a14.37,14.37,0,0,1,16,0Z" transform="translate(707.03 296.22)"/><path class="cls-22" d="M333,162V146a14.37,14.37,0,0,1,16,0v16A14.37,14.37,0,0,1,333,162Z" transform="translate(707.03 296.22)"/><path class="cls-32" d="M349,146H333V130h16Z" transform="translate(707.03 296.22)"/><path class="cls-24" d="M333,162h16v16H333Z" transform="translate(707.03 296.22)"/><path class="cls-57" d="M397,210v16a14.37,14.37,0,0,1-16,0c0-4.79,0-9.58,0-14.37,0-1.29.37-1.68,1.66-1.66C387.42,210,392.21,210,397,210Z" transform="translate(707.03 296.22)"/><path class="cls-18" d="M-547-46h160v16c-1.6,2.13-4,2.29-6.3,2.3q-33.7.22-67.4,0c-2.35,0-4.7-.17-6.3-2.3h-80Z" transform="translate(707.03 296.22)"/><path class="cls-57" d="M-483,146v16h-64c0-4.65.14-9.31-.06-13.95-.09-2,.71-2.09,2.29-2.08Q-513.89,146-483,146Z" transform="translate(707.03 296.22)"/><path class="cls-41" d="M-499,34c4.65,0,9.3.13,13.93-.06,2-.08,2.11.66,2.1,2.27-.06,15.26,0,30.53,0,45.79-4.65,0-9.3-.13-13.93.06-2,.08-2.11-.66-2.1-2.27C-499,64.53-499,49.26-499,34Z" transform="translate(707.03 296.22)"/><path class="cls-59" d="M-435,242h-16V226h16l.81.54C-432.28,231.81-431.1,237-435,242Z" transform="translate(707.03 296.22)"/><path class="cls-60" d="M381,226h16v16H381Z" transform="translate(707.03 296.22)"/><path class="cls-48" d="M-99,290V274c5-3.7,10.19-2.9,15.47-.81l.53.81v16Z" transform="translate(707.03 296.22)"/><path d="M-435,226V162h45.42c2.55,0,2.57,0,2.58-2.7,0-3.83.09-7.66,0-11.48-.05-1.63.59-1.87,2-1.85,5.49.07,11,0,16.47,0h42.92c2.9,0,2.65-.26,2.65,2.65q0,38.68,0,77.36c-2,3.16-5.35,2.29-8.2,2.31-22,.15-44,.07-66,.07-10.17,0-20.33.08-30.5-.06C-430.33,228.29-433.11,228.48-435,226Z" transform="translate(707.03 296.22)"/><path class="cls-51" d="M-435,226h160c1.6-2.13,4-2.29,6.31-2.3q49.69-.22,99.39,0c2.35,0,4.7.17,6.31,2.3h64l.83.56c2.19,5.48,2.54,10.9-.56,16.2-3.15,2.08-6.74,1.59-10.2,1.6q-53.71.09-107.42,0-103.92,0-207.85-.06c-3.69,0-7.78,1.07-10.8-2.34Z" transform="translate(707.03 296.22)"/><path d="M-163,226H-275c0-4.79,0-9.58,0-14.37,0-1.29.37-1.68,1.66-1.66,4.79.07,9.58,0,14.37,0,1.34-1.75,3.23-2.19,5.29-2.25q10.71-.31,21.42,0c2.06.06,4,.51,5.29,2.25h58.78c1,0,2,.08,3,0,1.59-.16,2.38.05,2.29,2.07C-163.14,216.69-163,221.35-163,226Z" transform="translate(707.03 296.22)"/><path class="cls-57" d="M-403,98c.21-5.28-.42-10.58.34-15.84,5.14-.05,10.28-.14,15.42-.15q30,0,60,0c1,0,2,0,3,0,1.17-.07,1.3.55,1.3,1.52,0,4.83,0,9.66,0,14.49Z" transform="translate(707.03 296.22)"/><path class="cls-41" d="M-227,210h-32c.21-5.28-.42-10.57.34-15.84,5.14-.05,10.27-.13,15.41-.16,4.49,0,9,0,13.48,0,2.74,0,2.76,0,2.76,3C-227,201.35-227,205.67-227,210Z" transform="translate(707.03 296.22)"/><path class="cls-35" d="M-99,194h16c3.92,5.36,2.8,10.87.52,16.42C-88.06,213-93.59,213.77-99,210Z" transform="translate(707.03 296.22)"/><path class="cls-36" d="M-99,210h16l.82.55c2.31,5.46,2.42,10.84-.5,16.14-5.55,2.18-11,3-16.33-.7Z" transform="translate(707.03 296.22)"/><path class="cls-50" d="M13,18c4.79,0,9.58,0,14.37,0,1.29,0,1.68.37,1.66,1.66C29,24.42,29,29.21,29,34c-1.6,2.13-4,2.28-6.3,2.3q-25.7.22-51.4,0c-2.35,0-4.7-.17-6.3-2.3V18Z" transform="translate(707.03 296.22)"/><path class="cls-49" d="M-35,34H29c0,4.65.14,9.3-.06,13.94-.09,2,.69,2.13,2.29,2.09,4-.1,8,0,12-.07,1.61,0,1.87.57,1.86,2-.06,8.47,0,16.93,0,25.4,0,1,.07,2,0,3-.11,1.27.31,1.75,1.64,1.69,2.15-.1,4.31,0,6.47,0H77c2.45,1.88,2.31,4.63,2.34,7.27.11,10,0,19.92.06,29.87.05,7.21.74,8,7.82,8.52,2.21.18,4.31.42,5.78,2.34v64c-1.61,2.11-3.95,2.29-6.3,2.31-12.15.12-24.31.24-36.45-.06-6-.15-7.06-1.38-7.55-7.51-.59-7.38-1.48-8.31-8.73-8.33q-29-.09-57.93,0c-7.42,0-8.53,1.24-8.63,8.85-.07,5.49.19,11-.19,16.48-.34,4.81-1.66,6.28-6.45,6.44-12.81.42-25.63.27-38.45.08A6.32,6.32,0,0,1-83,210V130c9.94,0,19.88,0,29.82,0,1.67,0,2.31-.21,2.24-2.13-.18-4.63-.06-9.27-.06-13.91V98c4.79,0,9.58,0,14.37,0,1.29,0,1.68-.37,1.66-1.66C-35,91.58-35,86.79-35,82V34Z" transform="translate(707.03 296.22)"/><path class="cls-21" d="M253-14V2c-1.6,2.13-4,2.29-6.3,2.3q-41.7.22-83.39,0c-2.35,0-4.7-.17-6.3-2.3V-14Z" transform="translate(707.03 296.22)"/><path d="M-83,210h43.47c4.53,0,4.53,0,4.53-4.75,0-8.33,0-16.65,0-25,0-1.51-.05-2.34,2-2.33q38,.16,75.94,0c2.07,0,2.11.78,2.06,2.32-.09,3,0,6,0,9C45,194,45,194,49.53,194H93v32l-.55.83c-2.11,1.77-4.7,1.51-7.15,1.51q-80.29.12-160.58,0c-2.45,0-5,.26-7.15-1.51L-83,226Z" transform="translate(707.03 296.22)"/><path class="cls-49" d="M317,178v48c-5.15,4.05-10.69,2.48-16.22,1.13-2.15-2.26-2-5.16-2.17-8-.39-5.49-1.5-6.7-7.05-6.73q-30.72-.16-61.44,0c-5.18,0-6.34,1.33-6.72,6.55-.2,2.81,0,5.71-2.07,8-2.21,1.58-4.79,1.27-7.24,1.29q-24.7.17-49.41,0c-2.69,0-5.81.71-7.68-2.31,0-10,.07-19.95-.06-29.92,0-1.94.62-2.13,2.26-2.12,9.31.07,18.62,0,27.93.07,1.54,0,1.94-.46,1.9-1.95-.09-4.15,0-8.31-.06-12.47,0-1.34.43-1.66,1.7-1.65,6,.06,12,0,18,0H253c1.6-2.13,4-2.28,6.3-2.3q25.7-.22,51.4,0C313,175.72,315.4,175.87,317,178Z" transform="translate(707.03 296.22)"/><path class="cls-51" d="M157,226h64c1.6-2.13,4-2.29,6.3-2.3q33.7-.22,67.4,0c2.35,0,4.7.17,6.3,2.3h32c3.78,5.38,2.94,10.89.49,16.45-3.18,2.51-7,1.9-10.57,1.91q-74.38.09-148.76,0c-13.65,0-27.29.05-40.94,0-3,0-6,.23-8.63-1.76-2.61-5.6-3.37-11.15.4-16.59Z" transform="translate(707.03 296.22)"/><path class="cls-23" d="M157,34V18c1.6-2.13,4-2.29,6.3-2.3q41.7-.22,83.39,0c2.35,0,4.7.17,6.3,2.3,0,4.8-.05,9.61,0,14.41,0,1.38-.5,1.62-1.72,1.61-10.1,0-20.21,0-30.31,0-1.6,2.13-4,2.28-6.3,2.3q-25.7.22-51.4,0C161,36.28,158.6,36.13,157,34Z" transform="translate(707.03 296.22)"/><path class="cls-26" d="M253,18H157V2h96Z" transform="translate(707.03 296.22)"/><path class="cls-30" d="M157,114V98c1.6-2.13,4-2.28,6.3-2.3q25.7-.22,51.4,0c2.35,0,4.7.17,6.3,2.3v16c-1.6,2.13-4,2.28-6.3,2.3q-25.7.22-51.4,0C161,116.28,158.6,116.13,157,114Z" transform="translate(707.03 296.22)"/><path class="cls-32" d="M221,130c-.21,5.28.42,10.58-.34,15.84-5.14.05-10.28.14-15.42.15q-22.23,0-44.46,0c-3.77,0-3.77,0-3.77-4s0-8,0-12c1.6-2.13,4-2.28,6.3-2.3q25.7-.22,51.4,0C217,127.72,219.4,127.87,221,130Z" transform="translate(707.03 296.22)"/><path class="cls-41" d="M317,178H253c.21-5.28-.42-10.58.34-15.84,5.14-.05,10.28-.14,15.42-.15q22.23,0,44.46,0c3.77,0,3.77,0,3.77,4S317,174,317,178Z" transform="translate(707.03 296.22)"/><path class="cls-27" d="M221,50V66c-1.6,2.13-4,2.28-6.3,2.3q-25.7.22-51.4,0c-2.35,0-4.7-.17-6.3-2.3V50c1.6-2.13,4-2.28,6.3-2.3q25.7-.22,51.4,0C217,47.72,219.4,47.87,221,50Z" transform="translate(707.03 296.22)"/><path class="cls-31" d="M221,130H157V114h64Z" transform="translate(707.03 296.22)"/><path class="cls-28" d="M157,66h64V82c-1.6,2.13-4,2.28-6.3,2.3q-25.7.22-51.4,0c-2.35,0-4.7-.17-6.3-2.3Z" transform="translate(707.03 296.22)"/><path class="cls-29" d="M157,82h64V98H157Z" transform="translate(707.03 296.22)"/><path class="cls-25" d="M221,50H157V34h64Z" transform="translate(707.03 296.22)"/><path class="cls-41" d="M93,130c-4.65,0-9.3-.13-13.93.06-2,.08-2.11-.66-2.1-2.27C77,112.53,77,97.26,77,82c4.65,0,9.3.13,13.93-.06,2-.08,2.11.66,2.1,2.27C93,99.47,93,114.74,93,130Z" transform="translate(707.03 296.22)"/><path class="cls-59" d="M333,242V226h16v16l-.49.78a17.16,17.16,0,0,1-15,0Z" transform="translate(707.03 296.22)"/><path class="cls-30" d="M349,114H333V98h16Z" transform="translate(707.03 296.22)"/><path class="cls-61" d="M125,226v16l-.55.82c-5.46,2.31-10.84,2.42-16.14-.5-2.18-5.55-3-11,.7-16.33Z" transform="translate(707.03 296.22)"/><path class="cls-59" d="M109,226v16l-.55.82c-5.46,2.31-10.84,2.42-16.14-.5-2.18-5.55-3-11,.7-16.33Z" transform="translate(707.03 296.22)"/><path class="cls-20" d="M-467-30h80c0,4.79,0,9.58,0,14.37,0,1.29-.37,1.68-1.66,1.66-4.79-.07-9.58,0-14.37,0-1.6,2.13-4,2.28-6.3,2.3q-25.7.22-51.4,0c-2.35,0-4.7-.17-6.3-2.3Z" transform="translate(707.03 296.22)"/><path class="cls-21" d="M-467-14h64V2c-1.6,2.13-4,2.28-6.3,2.3q-25.7.22-51.4,0c-2.35,0-4.7-.17-6.3-2.3Z" transform="translate(707.03 296.22)"/><path class="cls-23" d="M-467,34V18c1.6-2.13,4-2.28,6.3-2.3q25.7-.22,51.4,0c2.35,0,4.7.17,6.3,2.3V34c-1.6,2.13-4,2.28-6.3,2.3q-25.7.22-51.4,0C-463,36.28-465.4,36.13-467,34Z" transform="translate(707.03 296.22)"/><path class="cls-26" d="M-403,18h-64V2h64Z" transform="translate(707.03 296.22)"/><path class="cls-27" d="M-403,50c-.21,5.28.42,10.58-.34,15.84-5.14.05-10.28.14-15.42.15q-22.23,0-44.46,0C-467,66-467,66-467,62s0-8,0-12c1.6-2.13,4-2.28,6.3-2.3q25.7-.22,51.4,0C-407,47.72-404.6,47.87-403,50Z" transform="translate(707.03 296.22)"/><path class="cls-25" d="M-403,50h-64V34h64Z" transform="translate(707.03 296.22)"/><path class="cls-16" d="M109,274H-83c-3.69-5.37-3-10.87-.52-16.43,1.9-1.64,4.22-1.87,6.57-1.88,55.63-.09,111.26-.2,166.88.05.83,0,1.66.15,2.49.17,5.43.06,10.93-1.19,16.25.9a3.61,3.61,0,0,1,1.41,1.33C111.52,263.54,112.92,269,109,274Z" transform="translate(707.03 296.22)"/><path class="cls-16" d="M333,274H125c-3.78-5.38-2.94-10.89-.49-16.45,3.18-2.51,7-1.9,10.57-1.91q74.38-.09,148.76,0c13.65,0,27.29-.05,40.94,0,3,0,6-.23,8.63,1.76C336,263,336.77,268.56,333,274Z" transform="translate(707.03 296.22)"/><path class="cls-62" d="M125,258v16H109V258c5-3.9,10.19-2.72,15.46-.81Z" transform="translate(707.03 296.22)"/><path class="cls-47" d="M333,274V258l.49-.78a17.16,17.16,0,0,1,15,0l.49.79v16Z" transform="translate(707.03 296.22)"/><path class="cls-63" d="M349,242h32v16H349A14.37,14.37,0,0,1,349,242Z" transform="translate(707.03 296.22)"/><path class="cls-46" d="M-435,242H-99l.78.49a17.16,17.16,0,0,1,0,15L-99,258H-435Z" transform="translate(707.03 296.22)"/><path class="cls-47" d="M-83,258v16H-99V258c5-3.7,10.19-2.9,15.47-.81Z" transform="translate(707.03 296.22)"/><path class="cls-59" d="M-99,226h16c3.92,5,2.44,10.32,1.21,15.67a3.62,3.62,0,0,1-1.32,1.42c-5.42,1.44-10.83,2.84-15.88-1.08Z" transform="translate(707.03 296.22)"/><path class="cls-51" d="M-83,242V226H93v16l-.56.83c-2.11,1.77-4.7,1.5-7.15,1.51q-80.29.12-160.58,0C-78,244.31-81.07,244.89-83,242Z" transform="translate(707.03 296.22)"/><path d="M301,226H221c.21-5.28-.42-10.58.34-15.84,5.14-.05,10.28-.14,15.42-.15q30,0,60,0c1,0,2,0,3,0,1.17-.07,1.3.55,1.3,1.52C301,216.34,301,221.17,301,226Z" transform="translate(707.03 296.22)"/><path class="cls-46" d="M333,258H125a14.37,14.37,0,0,1,0-16H333A14.37,14.37,0,0,1,333,258Z" transform="translate(707.03 296.22)"/><path class="cls-56" d="M333,258V242h16v16Z" transform="translate(707.03 296.22)"/><path class="cls-64" d="M125,242v16H109a14.37,14.37,0,0,1,0-16Z" transform="translate(707.03 296.22)"/><path class="cls-56" d="M109,242v16H93a14.37,14.37,0,0,1,0-16Z" transform="translate(707.03 296.22)"/><path class="cls-46" d="M93,242v16H-83a14.37,14.37,0,0,1,0-16Z" transform="translate(707.03 296.22)"/><path class="cls-56" d="M-83,242v16H-99V242Z" transform="translate(707.03 296.22)"/></svg>