<svg id="facbookicon" xmlns="http://www.w3.org/2000/svg" viewBox="0 0 175.69 175.6"><defs><style>.cls-1{fill:#3d5a99;}.cls-2{fill:#fff;}</style></defs><title>svgfacev3</title><g id="group"><path id="fill" class="cls-1" d="M25,184.84v-7.71H17.1v-8.06H9.2v-144H17V17h7.88V9.24h144v7.62h8.06v8.06h8v144H177v7.89h-7.87v8ZM128.83,113V89H105.2v-24h23.58V41.14H88.87v8H81c0,6.82,0,13.46,0,20.1s.22,13.18-.2,19.93H65.11v23.89h16v47.69h24V113Z" transform="translate(-9.2 -9.24)"/><path id="flogo" class="cls-2" d="M128.83,113H105.13v47.74h-24V113.08h-16V89.19H80.79c.42-6.75.15-13.35.2-19.93S81,56,81,49.16h7.87v-8h39.91V64.93H105.2V89h23.63Z" transform="translate(-9.2 -9.24)"/></g></svg>