<svg id="Слой_1" data-name="Слой 1" xmlns="http://www.w3.org/2000/svg" viewBox="0 0 175.69 175.6"><defs><style>.cls-1{fill:#ce2c79;}.cls-2{fill:#fff;}</style></defs><title>svginst3</title><path id="outer" class="cls-1" d="M25,184.84v-7.72H17.1v-8.06H9.2v-144H17V17h7.88V9.24h144v7.63h8.06v8.06h8v144H177v7.89h-7.88v8ZM49,153v7.84c17.6.69,91.58.41,96-.34V153h8v-8h7.84c.69-17.6.41-91.58-.34-96H153V41h-8V33.16c-17.6-.69-91.58-.41-96,.34V41H41v8H33.16c-.69,17.6-.41,91.58.34,96H41v8Z" transform="translate(-9.2 -9.24)"/><path id="lay10" class="cls-2" d="M49,41V33.51c4.42-.76,78.4-1,96-.34V41Z" transform="translate(-9.2 -9.24)"/><path id="lay9" class="cls-2" d="M41,145H33.51c-.76-4.42-1-78.4-.34-96H41Z" transform="translate(-9.2 -9.24)"/><path id="lay8" class="cls-2" d="M153,49h7.49c.76,4.42,1,78.4.34,96H153Z" transform="translate(-9.2 -9.24)"/><path id="lay7" class="cls-2" d="M145,153v7.49c-4.42.76-78.4,1-96,.34V153Z" transform="translate(-9.2 -9.24)"/><path id="lay6" class="cls-2" d="M41,49V41h8v8Z" transform="translate(-9.2 -9.24)"/><path id="lay5" class="cls-2" d="M145,41h8v8h-8Z" transform="translate(-9.2 -9.24)"/><path id="lay4" class="cls-2" d="M49,153H41v-8h8Z" transform="translate(-9.2 -9.24)"/><path id="lay3" class="cls-2" d="M153,145v8h-8v-8Z" transform="translate(-9.2 -9.24)"/><path id="middle" class="cls-1" d="M153,145h-8v8H49v-8H41V49h8V41h96v8h8ZM57.17,73v48H65v8h8v7.81h48v-8h8V121h7.68c.62-15.92.4-43.84-.4-48.18H129V64.94h-8V57.22h-48v7.91h-8V73Zm79.65-16.09V49c-2.73.1-5.3-.13-7.65.13v7.81Z" transform="translate(-9.2 -9.24)"/><path id="lay2" class="cls-2" d="M57.17,73h7.68V65.13h8V57.22h48v7.72h8v7.88h7.48c.79,4.35,1,32.26.4,48.18h-7.68v7.87h-8v8h-48v-7.81H65v-8H57.17ZM113,65.17H81V73h-8v8h-7.8v32h8v8h8V129h31.07a.8.8,0,0,0,.42-.17,4.89,4.89,0,0,0,.52-.56V121h7.88v-8h7.72v-32h-7.91v-8H113Z" transform="translate(-9.2 -9.24)"/><path id="lay1" class="cls-2" d="M136.83,56.91h-7.65V49.11c2.35-.26,4.92,0,7.65-.13Z" transform="translate(-9.2 -9.24)"/><path id="center" class="cls-1" d="M113,65.17v7.67h7.87v8h7.91v32h-7.72v8h-7.88v7.3a4.89,4.89,0,0,1-.52.56.8.8,0,0,1-.42.17H81.17v-7.84h-8v-8h-8v-32h7.8V73h8V65.17Z" transform="translate(-9.2 -9.24)"/></svg>