<svg id="tweeico" xmlns="http://www.w3.org/2000/svg" viewBox="0 0 175.68 175.6"><defs><style>.cls-1{fill:#5fa9de;}.cls-2{fill:#fff;}</style></defs><title>svgtweev3</title><g id="group"><path id="fill" class="cls-1" d="M25,184.84v-7.71H17.11v-8.06H9.2v-144H17V17h7.88V9.25h144v7.62h8.06v8.06h8v144H177v7.89h-7.87v8Zm120-120h-8V56.94h-8.06v-7.7H112.85v8h-8V80.88H88.91v-8H80.84V64.82H73V56.93H56.9V49.24H49.17V73H56.8V89.07H49.23v8.06H73c-.1,2.75.13,5.33-.18,8.05H57.11v7.89h8v8.06h7.73V129H49.2v8.06h7.91v8.06H81.17v7.68H97v-7.89h16.06v-8.06h16.06V129h7.88v-8.06h8.06V104.86H153c0-2.82,0-5.46,0-8.1s.1-5.2-.08-7.95h-7.8v-7.9h7.74V72.85H145c0-2.85,0-5.35.14-8h7.64V57.11h-7.64C145.14,59.8,145.14,62.4,145,64.82Z" transform="translate(-9.2 -9.25)"/><path id="whiteone" class="cls-2" d="M145,64.82v8h7.85v8.06h-7.74v7.9h7.8c.17,2.74.06,5.35.08,7.95s0,5.29,0,8.1h-7.89v16.06h-8.06V129h-7.88v7.88H113.11v8.06H97v7.89H81.17v-7.68H57.11v-8.06H49.2V129H72.83v-7.88H65.1v-8.06h-8v-7.89H72.85c.31-2.72.08-5.3.18-8.05H49.23V89.07H56.8V73H49.17V49.24H56.9v7.69H73v7.89h7.88v8.06h8.06v8h15.9V57.19h8v-8h16.06v7.7H137v7.88Z" transform="translate(-9.2 -9.25)"/><path id="whitetwo" class="cls-2" d="M145.14,57.11v7.75h7.64V57.11Z" transform="translate(-9.2 -9.25)"/></g></svg>